<svg width="60" height="54" viewBox="0 0 60 54" fill="none" xmlns="http://www.w3.org/2000/svg">
<path d="M2.384e-07 16.1999C-0.000745301 11.8509 1.74716 7.6842 4.85044 4.63734C7.95373 1.59048 12.1518 -0.080685 16.5 -0.000147993C21.652 -0.027508 26.568 2.15738 30 5.99985C33.432 2.15738 38.348 -0.027508 43.5 -0.000147993C47.8482 -0.080685 52.0463 1.59048 55.1496 4.63734C58.2528 7.6842 60.0007 11.8509 60 16.1999C60 32.2679 40.863 44.3998 30 53.9999C19.161 44.3189 2.384e-07 32.2799 2.384e-07 16.1999Z" fill="url(#paint0_linear_1_125)"/>
<defs>
<linearGradient id="paint0_linear_1_125" x1="60.625" y1="26.9985" x2="1.61154e-08" y2="26.9985" gradientUnits="userSpaceOnUse">
<stop stop-color="#D71489"/>
<stop offset="1" stop-color="#004788"/>
</linearGradient>
</defs>
</svg>
